<?xml version="1.0" encoding="utf-8"?>
<!-- Generator: Adobe Illustrator 23.1.0, SVG Export Plug-In . SVG Version: 6.00 Build 0)  -->
<svg version="1.1" id="Layer_1" xmlns="http://www.w3.org/2000/svg" xmlns:xlink="http://www.w3.org/1999/xlink" x="0px" y="0px"
	 viewBox="0 0 400 152.24" style="enable-background:new 0 0 400 152.24;" xml:space="preserve">
<style type="text/css">
	.st0{clip-path:url(#SVGID_2_);}
	.st1{fill:none;stroke:#0054A6;stroke-width:0.75;stroke-miterlimit:10;}
	.st2{opacity:0.7;fill:none;stroke:#FFFFFF;stroke-width:0.75;stroke-miterlimit:10;}
	.st3{fill:none;stroke:#BE1E2D;stroke-width:0.75;stroke-miterlimit:10;}
	.st4{opacity:0.87;fill:none;stroke:#00AEEF;stroke-width:0.75;stroke-miterlimit:10;}
	.st5{opacity:0.5;fill:none;stroke:#FFC20E;stroke-width:0.75;stroke-miterlimit:10;}
	.st6{opacity:0.7;fill:none;stroke:#FFC20E;stroke-width:0.75;stroke-miterlimit:10;}
	.st7{fill:none;stroke:#8DC63F;stroke-width:0.75;stroke-miterlimit:10;}
	.st8{opacity:0.51;fill:none;stroke:#FBB040;stroke-width:0.75;stroke-miterlimit:10;}
	.st9{opacity:0.5;fill:none;stroke:#0054A6;stroke-width:0.75;stroke-miterlimit:10;}
	.st10{opacity:0.5;fill:none;stroke:#8DC63F;stroke-width:0.75;stroke-miterlimit:10;}
	.st11{opacity:0.47;fill:none;stroke:#FFC20E;stroke-width:0.75;stroke-miterlimit:10;}
	.st12{opacity:0.5;}
	.st13{opacity:0.5;fill:none;stroke:#CBDB2A;stroke-width:0.75;stroke-miterlimit:10;}
	.st14{opacity:0.65;fill:none;stroke:#00AEEF;stroke-width:0.75;stroke-miterlimit:10;}
	.st15{opacity:0.85;fill:none;stroke:#F7941D;stroke-width:0.75;stroke-miterlimit:10;}
	.st16{opacity:0.75;fill:none;stroke:#FFC20E;stroke-width:0.75;stroke-miterlimit:10;}
	.st17{opacity:0.7;fill:none;stroke:#70CDDD;stroke-width:0.75;stroke-miterlimit:10;}
	.st18{opacity:0.8;fill:none;stroke:#8DC63F;stroke-width:0.75;stroke-miterlimit:10;}
	.st19{opacity:0.35;fill:none;stroke:#BE1E2D;stroke-width:0.75;stroke-miterlimit:10;}
	.st20{opacity:0.47;fill:none;stroke:#70CDDD;stroke-width:0.75;stroke-miterlimit:10;}
	.st21{opacity:0.5;fill:none;stroke:#70CDDD;stroke-width:0.75;stroke-miterlimit:10;}
</style>
<g>
	<defs>
		<rect id="SVGID_1_" y="-1.91" width="400" height="154.29"/>
	</defs>
	<clipPath id="SVGID_2_">
		<use xlink:href="#SVGID_1_"  style="overflow:visible;"/>
	</clipPath>
	<g class="st0">
		<path class="st1" d="M234.89,313.05c1.44-1.41,1.41-3.69-0.03-5.08l-69.62-65.95c-1.46-1.38-3.84-1.37-5.27,0.04l-68.36,67.15
			c-1.43,1.4-1.4,3.69,0.06,5.08l69.59,65.94c1.47,1.38,3.84,1.36,5.27-0.04L234.89,313.05z"/>
		<path class="st2" d="M269.45,242.26c1.45-1.41,1.43-3.69-0.03-5.07l-17.75-16.82c-1.46-1.38-3.82-1.36-5.27,0.06l-17.42,17.1
			c-1.44,1.41-1.42,3.71,0.05,5.08l17.75,16.81c1.45,1.38,3.84,1.36,5.26-0.05L269.45,242.26z"/>
		<path class="st3" d="M398.92,154.34c1.2-1.13,1.18-3,0.01-4.14l-85.07-82.04c-1.19-1.14-3.12-1.14-4.3,0l-85.06,82.04
			c-1.18,1.14-1.18,3.02,0,4.14l85.06,82.04c1.19,1.14,3.12,1.14,4.3,0L398.92,154.34z"/>
		<path class="st4" d="M312.11,170.63c1.18-1.14,3.11-1.14,4.29,0l37.61,36.28c1.18,1.14,1.19,3.01,0,4.14l-37.61,36.28
			c-1.19,1.13-3.12,1.13-4.31,0l-37.61-36.27c-1.18-1.15-1.18-3.01,0-4.16L312.11,170.63z"/>
		<path class="st5" d="M309.11,92.82c1.19-1.13,3.12-1.12,4.29,0.04l55.73,54.73c1.17,1.15,1.16,3.01-0.03,4.14l-56.76,53.75
			c-1.19,1.14-3.11,1.12-4.29-0.04l-55.74-54.73c-1.17-1.15-1.14-3.01,0.04-4.13L309.11,92.82z"/>
		<path class="st4" d="M236.16,67.36c1.18-1.12,3.12-1.12,4.29,0.04l55.73,54.73c1.17,1.15,1.15,3.02-0.03,4.14l-56.76,53.75
			c-1.18,1.14-3.11,1.12-4.28-0.03l-55.74-54.72c-1.17-1.15-1.16-3.02,0.04-4.14L236.16,67.36z"/>
		<path class="st6" d="M289.84,101.75c1.19-1.13,3.12-1.11,4.29,0.04l14.2,13.96c1.17,1.14,1.16,3.02-0.04,4.14l-14.47,13.7
			c-1.18,1.13-3.12,1.11-4.28-0.05l-14.21-13.94c-1.17-1.16-1.16-3.02,0.04-4.15L289.84,101.75z"/>
		<path class="st7" d="M216.18,59.85c1.19-1.13,3.13-1.11,4.3,0.03l30.13,29.59c1.17,1.15,1.17,3.02-0.03,4.14l-30.69,29.07
			c-1.19,1.13-3.12,1.11-4.29-0.03l-30.14-29.6c-1.17-1.14-1.14-3.01,0.05-4.14L216.18,59.85z"/>
		<path class="st8" d="M274.85,43.25c1.2-1.14,3.12-1.14,4.3,0l23,22.2c1.19,1.14,1.19,3,0,4.15l-23,22.18
			c-1.18,1.14-3.12,1.14-4.3,0l-23-22.2c-1.18-1.13-1.18-2.99,0-4.13L274.85,43.25z"/>
		<path class="st1" d="M275.47,4.8c1.07-1.04,2.82-1.02,3.88,0.03l31.54,30.97c1.06,1.05,1.04,2.73-0.04,3.76l-32.12,30.42
			c-1.08,1.03-2.83,1.02-3.89-0.03l-31.54-30.98c-1.06-1.05-1.05-2.73,0.03-3.75L275.47,4.8z"/>
		<path class="st9" d="M260.04,9.23c1.09-1.01,2.84-1,3.9,0.04l7.03,6.91c1.07,1.04,1.05,2.73-0.04,3.76l-7.15,6.78
			c-1.08,1.03-2.83,1.01-3.9-0.04l-7.03-6.91c-1.06-1.05-1.05-2.74,0.03-3.76L260.04,9.23z"/>
		<path class="st10" d="M397.47,242.38c1.17-1.14,1.15-3.01-0.04-4.14l-56.75-53.75c-1.18-1.13-3.12-1.12-4.29,0.04l-55.73,54.73
			c-1.17,1.15-1.15,3.01,0.05,4.14l56.75,53.76c1.19,1.13,3.13,1.11,4.28-0.04L397.47,242.38z"/>
		<path class="st7" d="M334.05,54.11c1.17-1.14,1.17-3-0.02-4.14l-12.14-11.73c-1.19-1.14-3.12-1.14-4.31,0l-12.15,11.73
			c-1.19,1.14-1.19,3,0,4.14l12.15,11.73c1.19,1.13,3.12,1.13,4.31,0L334.05,54.11z"/>
		<path class="st3" d="M307.65,24.36c1.17-1.14,1.17-3-0.02-4.14L295.49,8.49c-1.19-1.14-3.12-1.14-4.31,0l-12.15,11.73
			c-1.19,1.14-1.19,3,0,4.14l12.15,11.73c1.19,1.13,3.12,1.13,4.31,0L307.65,24.36z"/>
		<path class="st3" d="M40,105.29c1.17-1.14,1.17-3-0.01-4.14L27.84,89.42c-1.19-1.14-3.12-1.14-4.31,0l-12.15,11.73
			c-1.19,1.14-1.19,3,0,4.14l12.15,11.73c1.19,1.13,3.12,1.13,4.31,0L40,105.29z"/>
		<path class="st11" d="M103.38,316.19c-1.47,1.39-3.84,1.37-5.27-0.04l-1.5-1.48c-1.43-1.41-1.41-3.69,0.05-5.07l1.52-1.45
			c1.46-1.39,3.84-1.37,5.27,0.04l1.49,1.46c1.43,1.41,1.41,3.71-0.05,5.09L103.38,316.19z"/>
		<g class="st12">
			<path class="st6" d="M350.1,308.57c1.44-1.4,1.44-3.69,0-5.09l-31.8-30.67c-1.45-1.4-3.82-1.4-5.27,0l-31.82,30.67
				c-1.45,1.4-1.45,3.69,0,5.08l31.82,30.68c1.44,1.4,3.82,1.4,5.27,0L350.1,308.57z"/>
		</g>
		<path class="st13" d="M189.41,220.1c1.46-1.41,1.46-3.69,0-5.09l-46.12-44.49c-1.45-1.4-3.83-1.4-5.28-0.01l-46.13,44.5
			c-1.46,1.4-1.44,3.7,0,5.09l46.13,44.5c1.45,1.4,3.82,1.4,5.28,0.01L189.41,220.1z"/>
		<path class="st7" d="M284.68,218.45c1.44-1.42,1.41-3.7-0.05-5.09l-69.6-65.93c-1.47-1.37-3.84-1.35-5.27,0.05l-68.36,67.13
			c-1.43,1.42-1.41,3.7,0.06,5.08l69.59,65.93c1.46,1.38,3.84,1.37,5.28-0.04L284.68,218.45z"/>
		<path class="st14" d="M313.2,305.78c1.43-1.42,1.41-3.7-0.06-5.09l-69.6-65.94c-1.48-1.38-3.84-1.36-5.27,0.05l-68.38,67.13
			c-1.41,1.4-1.41,3.7,0.06,5.08l69.6,65.94c1.47,1.39,3.83,1.37,5.28-0.04L313.2,305.78z"/>
		<path class="st7" d="M315,321.56c1.43-1.41,1.42-3.69-0.04-5.08l-37.63-35.66c-1.47-1.39-3.84-1.37-5.27,0.04l-36.97,36.3
			c-1.43,1.42-1.41,3.7,0.05,5.09l37.63,35.64c1.45,1.38,3.83,1.37,5.27-0.05L315,321.56z"/>
		<path class="st15" d="M161.98,119.14c1.47-1.39,3.84-1.36,5.26,0.05l68.37,67.12c1.44,1.41,1.42,3.69-0.05,5.07l-69.61,65.93
			c-1.46,1.4-3.83,1.37-5.27-0.04l-68.34-67.13c-1.44-1.42-1.42-3.7,0.04-5.07L161.98,119.14z"/>
		<path class="st8" d="M264.69,192.18c1.33-1.26,1.32-3.37,0-4.63l-95.38-91.83c-1.32-1.28-3.49-1.27-4.81,0.01l-95.22,91.99
			c-1.32,1.27-1.32,3.37,0,4.63l95.38,91.84c1.32,1.27,3.48,1.27,4.81,0L264.69,192.18z"/>
		<path class="st3" d="M138.89,59.82c1.18-1.12,3.11-1.11,4.26,0.04l34.54,33.93c1.17,1.15,1.15,3-0.03,4.11l-35.18,33.32
			c-1.18,1.12-3.1,1.11-4.27-0.04l-34.54-33.92c-1.16-1.14-1.14-3,0.04-4.12L138.89,59.82z"/>
		<path class="st4" d="M136.46,196.72c1.45-1.4,3.81-1.4,5.27,0l46.12,44.5c1.46,1.39,1.46,3.69,0,5.08l-46.12,44.51
			c-1.47,1.4-3.83,1.4-5.29,0L90.33,246.3c-1.46-1.4-1.46-3.67,0-5.08L136.46,196.72z"/>
		<path class="st1" d="M70.9,83.7c1.46-1.38,3.84-1.37,5.27,0.05l68.37,67.12c1.43,1.42,1.41,3.7-0.04,5.09L74.87,221.9
			c-1.45,1.39-3.82,1.35-5.27-0.05L1.25,154.72c-1.43-1.41-1.41-3.7,0.06-5.08L70.9,83.7z"/>
		<path class="st6" d="M136.02,127.47c1.47-1.39,3.84-1.36,5.27,0.05l17.42,17.11c1.43,1.42,1.4,3.71-0.05,5.09l-17.73,16.8
			c-1.46,1.38-3.84,1.36-5.27-0.05l-17.42-17.12c-1.43-1.4-1.41-3.69,0.05-5.07L136.02,127.47z"/>
		<path class="st16" d="M43.77,85.96c1.47-1.39,3.85-1.36,5.27,0.04l36.97,36.29c1.43,1.4,1.41,3.69-0.05,5.08l-37.65,35.64
			c-1.45,1.38-3.82,1.37-5.25-0.04l-36.96-36.3c-1.44-1.41-1.41-3.7,0.05-5.09L43.77,85.96z"/>
		<path class="st7" d="M98.1,60.26c1.46-1.4,3.82-1.4,5.27,0l28.23,27.23c1.43,1.39,1.45,3.67,0,5.07l-28.21,27.21
			c-1.46,1.4-3.84,1.4-5.28,0L69.88,92.56c-1.45-1.4-1.45-3.69,0.01-5.09L98.1,60.26z"/>
		<path class="st17" d="M180.17,58.24c1.46-1.38,3.84-1.36,5.27,0.05l9.52,9.37c1.45,1.4,1.42,3.69-0.05,5.08l-9.7,9.2
			c-1.46,1.38-3.82,1.35-5.26-0.06l-9.54-9.35c-1.43-1.43-1.41-3.71,0.05-5.09L180.17,58.24z"/>
		<path class="st4" d="M15.3,124.76c1.46-1.38,3.84-1.36,5.27,0.04l9.52,9.37c1.45,1.4,1.42,3.69-0.05,5.07l-9.7,9.2
			c-1.46,1.38-3.82,1.35-5.26-0.06l-9.54-9.35c-1.43-1.43-1.41-3.71,0.05-5.09L15.3,124.76z"/>
		<path class="st18" d="M55.38,113.25c1.46-1.38,3.84-1.36,5.27,0.04l9.52,9.37c1.45,1.4,1.42,3.69-0.05,5.07l-9.7,9.2
			c-1.46,1.38-3.82,1.35-5.26-0.06l-9.54-9.35c-1.43-1.43-1.41-3.71,0.05-5.09L55.38,113.25z"/>
		<path class="st4" d="M84.75,138.65c1.46-1.38,3.84-1.35,5.27,0.04l9.52,9.37c1.45,1.4,1.42,3.69-0.05,5.07l-9.7,9.2
			c-1.46,1.38-3.82,1.35-5.26-0.06L75,152.93c-1.43-1.43-1.41-3.71,0.05-5.09L84.75,138.65z"/>
		<path class="st19" d="M183.72,281.73c1.45-1.38,1.45-3.67,0-5.08l-46.14-44.5c-1.46-1.4-3.82-1.4-5.26,0l-46.14,44.5
			c-1.45,1.4-1.45,3.69,0,5.08l46.14,44.51c1.44,1.4,3.82,1.4,5.26,0L183.72,281.73z"/>
		<path class="st20" d="M88.6,257.7c-1.44,1.42-1.41,3.71,0.05,5.09l1.52,1.45c1.45,1.38,3.84,1.36,5.27-0.04l1.5-1.47
			c1.43-1.41,1.41-3.7-0.05-5.08l-1.52-1.45c-1.46-1.38-3.84-1.36-5.27,0.05L88.6,257.7z"/>
		<path class="st21" d="M96.57,127.51c-1.44,1.42-1.41,3.71,0.05,5.09l1.53,1.45c1.45,1.38,3.84,1.35,5.27-0.05l1.5-1.47
			c1.43-1.41,1.41-3.7-0.05-5.08l-1.52-1.45c-1.46-1.39-3.84-1.36-5.27,0.05L96.57,127.51z"/>
		<path class="st20" d="M269.57,249.99c-1.44,1.42-1.41,3.71,0.05,5.09l1.53,1.45c1.45,1.38,3.84,1.35,5.27-0.05l1.5-1.47
			c1.43-1.41,1.41-3.7-0.05-5.09l-1.52-1.45c-1.46-1.39-3.84-1.36-5.27,0.04L269.57,249.99z"/>
		<path class="st1" d="M199.78,86.03c1.45-1.4,1.45-3.69,0-5.07l-14.91-14.38c-1.45-1.4-3.82-1.4-5.26,0l-14.92,14.38
			c-1.45,1.39-1.45,3.67,0,5.07l14.92,14.38c1.44,1.39,3.82,1.39,5.26,0L199.78,86.03z"/>
		<path class="st1" d="M331.74,249.01c1.18-1.14,1.16-3.01,0-4.14l-37.63-36.29c-1.18-1.13-3.12-1.13-4.29,0l-37.62,36.29
			c-1.19,1.13-1.19,3,0,4.13l37.62,36.29c1.17,1.13,3.12,1.15,4.29,0L331.74,249.01z"/>
		<path class="st18" d="M363.21,165.17c1.18-1.14,1.18-3,0-4.14l-37.61-36.27c-1.18-1.14-3.12-1.14-4.3-0.02l-37.63,36.28
			c-1.18,1.14-1.17,3.01,0.02,4.14l37.61,36.28c1.18,1.14,3.1,1.14,4.3,0L363.21,165.17z"/>
	</g>
</g>
</svg>
